<svg xmlns="http://www.w3.org/2000/svg" width="20" height="20" viewBox="0 0 20 20">
  <g id="icon_setting" transform="translate(-363 -91)">
    <path id="Path_108" data-name="Path 108" d="M16.625,6.5,18,3.875l-1.75-1.75L13.625,3.5A4.478,4.478,0,0,0,12.25,3l-1-3H8.75l-1,2.875a5.224,5.224,0,0,0-1.25.5L3.875,2,2,3.875,3.375,6.5a5.224,5.224,0,0,0-.5,1.25L0,8.75v2.5l2.875,1c.125.5.375.875.5,1.375L2,16.25,3.75,18l2.625-1.375a4.478,4.478,0,0,0,1.375.5L8.75,20h2.5l1-2.875c.5-.125.875-.375,1.375-.5L16.25,18,18,16.25l-1.375-2.625a4.478,4.478,0,0,0,.5-1.375l2.875-1V8.75l-2.875-1A5.224,5.224,0,0,0,16.625,6.5ZM10,13.75A3.683,3.683,0,0,1,6.25,10,3.683,3.683,0,0,1,10,6.25,3.683,3.683,0,0,1,13.75,10,3.683,3.683,0,0,1,10,13.75Z" transform="translate(363 91)"/>
  </g>
</svg>
