<svg xmlns="http://www.w3.org/2000/svg" width="20" height="20" viewBox="0 0 20 20">
  <g id="icon_home" transform="translate(-43 -91)">
    <path id="Path_357" data-name="Path 357" d="M19.476,6.483,10.726.233a1.251,1.251,0,0,0-1.453,0L.524,6.483A1.25,1.25,0,0,0,1.976,8.518L2.5,8.143V18.75A1.25,1.25,0,0,0,3.75,20h12.5a1.25,1.25,0,0,0,1.25-1.25V8.143a2.13,2.13,0,0,0,1.249.607,1.25,1.25,0,0,0,.728-2.267ZM15,17.5H12.5V13.75a2.5,2.5,0,1,0-5,0V17.5H5V6.358l5-3.571,5,3.571Z" transform="translate(43 91)"/>
  </g>
</svg>
