<svg xmlns="http://www.w3.org/2000/svg" width="17.499" height="20" viewBox="0 0 17.499 20">
  <defs>
    <style>
      .cls-1 {
        fill: #99badd;
      }
    </style>
  </defs>
  <g id="icon_customers" transform="translate(-221 -91)">
    <path id="Union_10" data-name="Union 10" class="cls-1" d="M-4-306a7.522,7.522,0,0,1,7.5-7.5H6a7.522,7.522,0,0,1,7.5,7.5Zm3.249-2.5H10.374A5.041,5.041,0,0,0,6-311H3.624A5.044,5.044,0,0,0-.751-308.5Zm.5-11.25V-321a5.014,5.014,0,0,1,5-5,5.015,5.015,0,0,1,5,5v1.25a5.015,5.015,0,0,1-5,5A5.015,5.015,0,0,1-.25-319.751ZM2.25-321v1.25a2.507,2.507,0,0,0,2.5,2.5,2.508,2.508,0,0,0,2.5-2.5V-321a2.507,2.507,0,0,0-2.5-2.5A2.507,2.507,0,0,0,2.25-321Z" transform="translate(225 417)"/>
  </g>
</svg>
