<svg xmlns="http://www.w3.org/2000/svg" width="20" height="20" viewBox="0 0 20 20">
  <defs>
    <style>
      .cls-1 {
        fill: #99badd;
      }
    </style>
  </defs>
  <g id="phone-symbol-of-an-auricular-inside-a-circle" transform="translate(-0.001)">
    <path id="Path_326" data-name="Path 326" class="cls-1" d="M10,0A10,10,0,1,0,20,10,10,10,0,0,0,10,0Zm5.281,14.591-.8.8a1.476,1.476,0,0,1-.575.232,9.444,9.444,0,0,1-9.53-9.552,1.491,1.491,0,0,1,.234-.549l.8-.8a1.337,1.337,0,0,1,1.25-.3l.168.056a1.582,1.582,0,0,1,.914.967l.4,1.478a1.45,1.45,0,0,1-.331,1.266l-.535.535a5.679,5.679,0,0,0,3.993,3.994l.534-.535a1.449,1.449,0,0,1,1.266-.332l1.478.4a1.584,1.584,0,0,1,.967.913l.056.171A1.339,1.339,0,0,1,15.282,14.591Z"/>
  </g>
</svg>
