<svg xmlns="http://www.w3.org/2000/svg" width="17.5" height="20" viewBox="0 0 17.5 20">
  <defs>
    <style>
      .cls-1 {
        fill: #99badd;
      }
    </style>
  </defs>
  <path id="Union_49" data-name="Union 49" class="cls-1" d="M2636.25-1839a1.181,1.181,0,0,1-1.25-1.25v-11.25a1.181,1.181,0,0,1,1.25-1.25h2.5V-1854a5.015,5.015,0,0,1,5-5h.056a5.014,5.014,0,0,1,4.945,5v1.25h2.5a1.181,1.181,0,0,1,1.25,1.25v11.25a1.18,1.18,0,0,1-1.25,1.25Zm8.75-3.75v-1.625a2.419,2.419,0,0,0,1.25-2.124,2.507,2.507,0,0,0-2.5-2.5,2.507,2.507,0,0,0-2.5,2.5,2.419,2.419,0,0,0,1.25,2.124h0v1.624Zm-3.75-11.25v1.25h5V-1854a2.508,2.508,0,0,0-2.5-2.5A2.507,2.507,0,0,0,2641.25-1854Z" transform="translate(-2635 1859)"/>
</svg>
